# xmcd
#
# Track frame offsets:
#	150
#	11283
#	25392
#	39520
#	50489
#	61660
#	74031
#	86239
#	101058
#	119218
#	131186
#	144546
#	156504
#	169614
#	179883
#	194193
#	207668
#	221633
#	235329
#	248737
#	262721
#	272990
#	285428
#	296445
#
# Disc length: 4112 seconds
#
# Revision: 0
# Processed by: cddbd v1.5.1PL2 Copyright (c) Steve Scherf et al.
# Submitted via: EasyCDDAExtractor 4.6.9.1
#
DISCID=87100e18
DTITLE=Wanda Jackson - Tears Will Be The Chaser For Your Wine - CD 8
DYEAR=1997
DGENRE=Country
TTITLE0=Oh Blacky Joe (japanese)
TTITLE1=Santa Domingo (japanese)
TTITLE2=Santa Domingo (German)
TTITLE3=Oh Blacky Joe (German)
TTITLE4=Morgen ja Morgen
TTITLE5=Ich Schau Hinter Ins Tal
TTITLE6=Oh Lonesome Me (German)
TTITLE7=Komm Heim Mein Wandersmann
TTITLE8=Doch Dann Kam Johnny
TTITLE9=Das Kommt Vom Gluck In Der Lie
TTITLE10=Wer An das Meer Sein herz verl
TTITLE11=Louisiana Moon
TTITLE12=Ohne tserne ist der himmel lee
TTITLE13=Wenn der abschiedt kommt
TTITLE14=Abscheidsrosen
TTITLE15=Der mond ist der freund der ve
TTITLE16=Addiio My Love
TTITLE17=Vom Winde verweht
TTITLE18=Warum gleicj tranen
TTITLE19=Schick Inhen nicht vort daddy
TTITLE20=Wat hat man den bloss von eine
TTITLE21=Ein hertz gewinnt ein hertz ve
TTITLE22=Morgen ja morgen (dutch)
TTITLE23=Ik hou van jou (Dutch)
EXTD=
EXTT0=
EXTT1=
EXTT2=
EXTT3=
EXTT4=
EXTT5=
EXTT6=
EXTT7=
EXTT8=
EXTT9=
EXTT10=
EXTT11=
EXTT12=
EXTT13=
EXTT14=
EXTT15=
EXTT16=
EXTT17=
EXTT18=
EXTT19=
EXTT20=
EXTT21=
EXTT22=
EXTT23=
PLAYORDER=
